<?xml version="1.0" standalone="no"?>
<!DOCTYPE svg PUBLIC "-//W3C//DTD SVG 20010904//EN"
 "http://www.w3.org/TR/2001/REC-SVG-20010904/DTD/svg10.dtd">
<svg version="1.0" xmlns="http://www.w3.org/2000/svg"
 width="650.000000pt" height="650.000000pt" viewBox="0 0 650.000000 650.000000"
 preserveAspectRatio="xMidYMid meet">
<metadata>
Created by potrace 1.11, written by Peter Selinger 2001-2013
</metadata>
<g transform="translate(0.000000,650.000000) scale(0.100000,-0.100000)"
fill="#000000" stroke="none">
<path d="M0 5755 l0 -745 33 0 c18 0 38 -5 45 -12 9 -9 16 -8 30 5 41 37 79 4
40 -35 -16 -16 -23 -37 -25 -73 -4 -74 -11 -95 -28 -89 -10 4 -15 0 -15 -15 0
-15 -8 -23 -28 -27 -48 -10 -52 -35 -52 -310 0 -239 1 -253 19 -259 13 -4 17
-12 14 -26 -7 -25 16 -43 34 -27 17 14 18 -13 1 -31 -11 -10 -9 -16 9 -31 13
-10 23 -28 23 -40 0 -12 4 -18 10 -15 5 3 10 -2 10 -13 0 -10 14 -32 30 -49
18 -19 27 -34 20 -38 -5 -3 -10 -21 -10 -39 0 -49 11 -96 21 -90 5 3 6 -1 3
-9 -2 -7 -1 -39 4 -70 5 -35 5 -57 0 -57 -5 0 -3 -7 5 -14 10 -10 13 -28 10
-55 -3 -23 -1 -41 5 -41 8 0 24 -89 23 -125 -1 -37 -12 -119 -17 -126 -6 -11
20 -39 35 -39 6 0 11 -19 11 -42 0 -44 19 -94 20 -53 0 16 2 17 9 5 6 -8 7
-18 4 -24 -3 -5 2 -15 11 -22 10 -7 17 -16 18 -21 0 -4 4 -7 9 -6 5 2 9 -3 9
-10 0 -19 -75 -57 -113 -57 -43 0 -108 26 -104 42 1 8 -16 15 -47 18 -31 4
-53 13 -62 25 -12 16 -14 -8 -14 -173 0 -185 1 -192 20 -192 11 0 20 -7 20
-15 0 -27 1 -30 17 -47 15 -17 14 -18 -9 -18 -14 0 -31 -6 -37 -13 -8 -10 -11
-383 -11 -1335 l0 -1322 1163 0 c828 0 1166 3 1174 11 8 8 17 8 31 0 15 -8
281 -11 891 -11 929 0 920 0 818 46 -43 20 -63 57 -44 82 13 17 64 15 71 -3 3
-8 12 -15 20 -15 8 0 16 -5 18 -10 2 -6 14 -12 28 -14 49 -5 98 -56 54 -56 -9
0 -14 -6 -12 -12 3 -9 34 -14 96 -16 77 -2 92 0 92 13 0 17 46 21 52 4 6 -18
34 0 35 24 1 12 6 23 10 24 4 2 8 47 8 101 0 84 -4 111 -22 144 -2 3 3 13 11
21 13 13 12 14 -10 14 -29 0 -29 1 -38 31 -7 20 -4 22 34 22 22 0 54 -7 70
-15 27 -14 30 -14 30 1 0 22 40 56 58 49 7 -3 20 -5 27 -5 8 0 16 -8 19 -18 4
-11 18 -25 31 -32 15 -8 25 -22 25 -35 0 -16 14 -29 53 -48 29 -15 60 -27 70
-27 10 0 15 -5 12 -10 -4 -6 -11 -8 -16 -4 -6 3 -16 -2 -24 -12 -11 -16 -16
-17 -38 -5 -14 8 -33 11 -41 8 -10 -4 -16 -1 -16 8 0 8 -6 15 -12 16 -23 2
-83 -3 -87 -7 -7 -6 29 -54 41 -54 14 0 58 -51 58 -67 0 -7 5 -13 11 -13 6 0
9 -20 7 -50 -2 -32 -7 -49 -14 -46 -7 3 -10 -3 -7 -15 5 -19 25 -19 884 -19
l879 0 0 848 0 847 -32 17 c-18 9 -47 20 -65 23 -17 3 -56 21 -86 40 -31 18
-58 31 -60 29 -2 -3 -20 11 -41 29 -23 22 -36 42 -36 59 0 22 7 27 48 39 27 8
93 14 160 14 l112 -1 0 482 0 481 -37 6 c-21 4 -42 2 -47 -3 -5 -5 -1 -7 11
-4 12 3 24 1 27 -5 4 -6 2 -11 -4 -11 -6 0 -8 -5 -5 -11 4 -6 -2 -19 -14 -30
-25 -23 -72 -24 -196 -4 -49 8 -133 15 -185 15 -96 -1 -220 19 -244 39 -8 6
-20 9 -28 6 -8 -3 -28 0 -44 6 -16 7 -33 13 -39 14 -5 2 -38 10 -72 20 -42 12
-80 16 -115 12 -66 -7 -188 -27 -208 -34 -8 -4 -24 -8 -34 -10 -28 -5 -28 -7
-12 -38 8 -16 13 -32 10 -37 -3 -4 4 -8 15 -8 18 0 21 -6 21 -40 0 -22 -5 -40
-10 -40 -6 0 -21 -10 -33 -21 -13 -13 -16 -20 -7 -17 11 4 15 -2 15 -22 0 -21
-4 -27 -17 -25 -38 8 1 -41 58 -72 33 -17 64 -36 71 -42 7 -6 19 -11 27 -11 8
0 27 -5 43 -12 15 -6 33 -10 40 -9 6 1 13 -6 15 -16 2 -14 15 -18 58 -20 30
-1 56 -6 58 -12 2 -6 20 -18 40 -28 45 -20 115 -73 108 -81 -3 -3 2 -10 11
-17 15 -11 14 -14 -10 -35 -14 -13 -24 -27 -21 -32 3 -4 -1 -8 -9 -8 -8 0 -18
-7 -21 -16 -6 -15 -8 -15 -31 0 -15 10 -46 16 -85 16 -47 0 -60 3 -60 15 0 8
-7 15 -16 15 -8 0 -13 4 -10 9 7 11 -45 25 -53 14 -11 -15 -78 -14 -84 1 -7
17 -117 76 -142 76 -8 0 -15 7 -15 16 0 11 -6 14 -20 9 -12 -4 -26 0 -36 9
-18 18 -144 23 -144 6 0 -5 -8 -10 -17 -10 -13 0 -14 -3 -6 -8 20 -13 66 -105
65 -130 -1 -12 3 -22 8 -22 5 0 0 -20 -12 -44 l-21 -45 21 -71 c12 -39 28 -77
36 -86 24 -24 37 -89 30 -147 -9 -68 -7 -89 6 -97 6 -4 13 -51 16 -106 3 -54
7 -107 9 -118 2 -10 0 -28 -5 -40 -4 -12 -4 -64 1 -116 10 -99 5 -165 -12
-155 -5 4 -9 2 -9 -3 0 -5 -8 -12 -18 -15 -23 -5 -34 -51 -33 -132 1 -33 -3
-66 -8 -74 -6 -9 -4 -32 5 -63 17 -56 10 -112 -18 -142 -13 -15 -15 -22 -6
-27 17 -11 4 -21 -33 -25 -41 -5 -43 -8 -28 -33 10 -15 16 -17 26 -9 10 8 13
5 13 -11 0 -11 -4 -21 -10 -21 -7 0 -50 -82 -50 -96 0 -2 7 -4 16 -4 14 0 14
-2 3 -16 -9 -11 -25 -15 -51 -12 -21 2 -39 0 -41 -5 -1 -4 -10 -5 -20 -1 -14
5 -15 9 -6 20 9 12 5 14 -24 14 -20 0 -38 4 -41 9 -10 15 -67 19 -73 4 -3 -7
-21 -13 -42 -13 -29 -1 -33 -3 -19 -11 10 -5 18 -14 18 -18 0 -19 -29 -18 -68
1 -29 15 -39 26 -35 37 4 9 3 13 -1 9 -4 -3 -16 1 -27 10 -10 10 -28 25 -39
34 -11 10 -22 13 -25 8 -4 -6 -15 -10 -27 -10 -12 0 -22 -8 -25 -21 -4 -13
-11 -18 -21 -14 -8 3 -20 -2 -27 -12 -11 -15 -13 -15 -20 6 -4 12 -17 26 -30
31 -33 12 -82 121 -83 182 0 52 9 63 49 60 19 -2 29 3 31 15 5 22 -23 82 -38
83 -17 0 -36 55 -36 101 1 49 13 65 37 51 43 -23 81 18 64 67 -6 17 -17 31
-24 31 -9 0 -11 22 -8 93 9 207 8 229 -10 242 -21 15 -22 25 -2 25 8 0 15 7
15 15 0 8 -3 15 -8 15 -13 0 0 84 15 95 20 15 28 89 13 125 l-12 30 -27 -19
c-14 -11 -36 -29 -48 -40 -12 -12 -29 -21 -37 -21 -8 0 -16 -5 -18 -10 -2 -6
-13 -12 -24 -12 -16 -2 -21 -9 -21 -26 0 -37 -31 -53 -55 -29 -8 9 -21 11 -33
6 -11 -4 -15 -8 -8 -8 6 -1 9 -10 6 -20 -3 -13 -10 -18 -20 -14 -9 3 -19 -1
-24 -9 -5 -9 -18 -14 -32 -11 -14 3 -31 -2 -40 -11 -14 -14 -20 -15 -37 -4
-18 11 -23 10 -33 -3 -9 -11 -23 -14 -49 -11 -24 3 -38 0 -38 -7 0 -16 -26
-13 -40 4 -8 9 -21 13 -32 9 -17 -5 -18 -3 -9 15 16 28 -11 29 -39 1 -11 -11
-27 -20 -37 -20 -14 0 -14 2 2 20 10 11 23 20 28 20 12 0 32 25 57 72 22 41
27 129 10 186 -13 47 -75 109 -140 140 -47 22 -68 26 -146 26 -53 0 -106 -6
-125 -14 -43 -17 -116 -67 -146 -100 -76 -82 -82 -203 -13 -281 40 -46 39 -59
-5 -52 -23 4 -35 2 -35 -6 0 -6 5 -11 11 -11 5 0 7 -4 4 -10 -3 -5 -16 -10
-29 -10 -12 0 -27 -5 -33 -11 -13 -13 -43 -5 -43 10 0 5 8 7 19 4 10 -3 22 0
26 7 5 8 -2 11 -21 8 -18 -2 -33 -12 -41 -28 -7 -14 -13 -20 -13 -15 0 6 -23
21 -50 34 -28 14 -50 30 -50 36 0 5 -10 15 -22 20 -13 6 -22 17 -22 26 1 11
-5 15 -16 12 -12 -3 -21 4 -28 26 -6 17 -18 31 -26 31 -25 0 -19 16 12 30 l27
12 -22 11 c-13 5 -25 18 -28 28 -5 14 -16 19 -43 18 -29 0 -33 -2 -17 -9 26
-10 10 -16 -61 -24 -45 -4 -53 -2 -57 15 -4 17 0 19 38 19 25 0 48 6 54 14 11
13 -2 15 -86 19 -113 5 -124 7 -147 30 -11 10 -33 17 -56 17 -21 0 -41 4 -44
9 -3 4 6 6 19 3 19 -3 24 -1 20 10 -5 11 4 17 34 22 22 3 47 3 57 -1 12 -4 15
-3 10 5 -4 7 -31 12 -63 12 -41 0 -59 5 -68 17 -11 15 -18 15 -52 5 -22 -7
-49 -12 -60 -12 -21 0 -100 -75 -86 -83 10 -6 72 -1 93 7 35 13 75 11 75 -4 0
-8 -6 -14 -12 -13 -7 2 -13 -5 -13 -15 0 -10 -6 -24 -12 -31 -11 -11 -7 -12
22 -7 29 6 32 5 17 -5 -11 -6 -26 -12 -35 -13 -10 -2 -18 -13 -20 -24 -2 -12
-10 -22 -18 -22 -8 0 -17 -13 -20 -28 -5 -26 -10 -28 -42 -27 -42 3 -114 -14
-124 -29 -9 -14 -105 -13 -119 1 -10 10 -9 15 0 27 10 12 9 20 -4 39 -14 23
-19 24 -51 14 -43 -13 -62 0 -45 31 10 18 7 23 -21 36 -17 9 -37 16 -44 16
-18 0 -60 60 -42 61 7 0 3 5 -9 11 -13 6 -23 20 -23 30 0 12 -9 22 -22 26 -20
5 -19 7 12 17 27 9 35 17 35 36 0 18 -7 25 -30 30 -24 5 -25 7 -7 8 21 1 42
33 42 62 0 13 -62 1 -71 -13 -3 -5 -27 -8 -54 -6 -36 2 -51 8 -63 25 -14 22
-14 23 15 17 21 -4 33 0 47 15 17 19 18 24 6 47 -9 16 -20 24 -31 21 -18 -5
-28 0 -47 24 -16 21 -5 49 19 49 10 0 19 6 19 13 0 8 4 7 10 -3 6 -9 10 -10
10 -3 0 6 16 17 35 23 19 6 35 18 35 25 0 8 12 22 26 32 39 27 104 95 104 108
0 7 7 18 15 25 20 17 19 50 -2 65 -15 11 -14 14 13 27 21 10 41 12 74 6 53
-10 63 -10 113 -2 39 7 43 14 27 44 -11 21 10 50 36 50 8 0 14 7 14 15 0 13
10 16 49 14 29 -2 56 3 65 11 18 14 106 23 106 10 0 -5 -9 -12 -20 -15 -11 -3
-20 -10 -20 -15 0 -11 69 -22 100 -15 14 3 60 11 103 17 42 6 77 15 77 20 0 4
19 7 43 7 l42 -1 -42 -11 c-50 -12 -59 -32 -10 -23 17 4 53 9 80 12 43 6 47 5
47 -15 0 -28 16 -27 44 4 13 14 26 25 30 25 13 0 5 -41 -11 -60 -19 -22 -43
-27 -43 -8 0 6 -3 9 -6 5 -6 -5 -11 -60 -15 -142 -1 -22 -10 -50 -20 -64 -11
-13 -19 -32 -19 -42 0 -21 -16 -26 -23 -6 -3 6 -6 2 -6 -10 -1 -15 -7 -23 -18
-23 -14 0 -15 -2 -4 -9 10 -7 9 -11 -7 -22 -10 -8 -22 -24 -26 -36 -4 -13 -14
-23 -23 -23 -13 0 -13 -3 -3 -15 11 -13 15 -13 22 -3 7 10 9 10 5 -2 -6 -20
10 -50 27 -50 16 0 29 -27 20 -42 -3 -5 3 -12 15 -15 14 -3 21 -13 21 -29 0
-13 -4 -24 -9 -24 -4 0 -7 -13 -5 -29 3 -27 0 -30 -28 -33 l-32 -3 32 -31 31
-32 -26 -7 c-14 -3 -31 -1 -36 4 -6 6 -19 11 -29 11 -10 0 -29 6 -41 14 -23
15 -68 22 -196 32 -41 3 -79 8 -84 11 -4 3 -28 2 -53 -2 -44 -6 -44 -6 -23
-24 l22 -18 -23 -21 c-13 -12 -19 -22 -14 -22 6 0 15 5 20 10 7 7 19 7 35 1
15 -5 43 -6 70 0 24 4 86 8 137 9 79 0 95 -3 112 -20 11 -11 20 -15 20 -8 0 7
5 6 13 -4 6 -8 35 -21 62 -28 28 -7 59 -20 70 -28 19 -13 18 -14 -10 -8 -29 6
-29 6 -10 -9 11 -9 32 -19 48 -22 31 -6 37 -23 7 -23 -11 0 -20 -4 -20 -10 0
-5 18 -10 41 -10 35 0 40 2 34 19 -4 14 0 23 15 31 16 9 18 15 10 30 -13 24
-13 26 6 45 12 12 19 13 30 4 9 -8 14 -8 14 -1 0 6 -8 16 -17 21 -17 10 -17
10 0 11 16 0 17 2 1 31 -15 29 -14 32 4 53 14 16 18 31 14 59 -3 30 1 46 18
69 12 17 20 38 17 49 -3 11 2 37 10 59 15 37 15 42 -1 59 -12 13 -14 21 -6 26
7 4 9 19 5 36 -4 17 -2 29 3 29 14 0 2 41 -14 47 -19 7 -18 23 1 23 13 0 12 4
-4 22 -23 24 -36 56 -27 65 3 4 6 -2 6 -12 0 -38 15 -2 17 42 4 55 8 61 31 47
9 -5 29 -8 43 -6 23 3 28 10 34 45 9 47 14 250 7 242 -10 -10 -31 17 -25 33 4
10 -2 7 -13 -7 -16 -18 -26 -22 -44 -16 l-24 8 22 17 c12 10 22 24 22 32 0 8
-5 6 -11 -5 -15 -25 -39 -4 -39 35 0 26 3 29 23 23 19 -5 20 -4 4 5 -12 8 -15
18 -11 38 6 26 6 26 -9 7 -16 -19 -16 -19 -23 12 -5 27 -9 31 -24 23 -35 -19
-50 -2 -50 55 0 30 5 57 11 60 7 5 10 -3 8 -21 -4 -53 1 -94 12 -94 5 0 7 4 4
10 -3 5 -1 26 4 47 9 31 7 43 -8 69 -23 39 -37 114 -22 114 12 0 14 32 5 68
-4 14 -12 21 -20 18 -7 -3 -17 2 -22 10 -11 19 -63 15 -70 -5 -3 -9 0 -11 8
-6 8 5 11 4 6 -3 -4 -6 -13 -9 -21 -5 -21 7 -19 -10 6 -51 18 -30 19 -38 7
-53 -16 -22 -78 -31 -78 -12 0 10 -3 10 -12 1 -9 -9 -6 -16 10 -30 28 -24 28
-32 0 -32 -17 0 -20 -3 -9 -9 8 -5 11 -16 8 -26 -4 -9 -3 -14 2 -11 5 3 12 -1
15 -10 9 -24 7 -34 -6 -31 -8 1 -12 -8 -10 -25 3 -26 1 -27 -27 -22 -17 4 -53
-1 -88 -12 -68 -22 -174 -25 -180 -6 -3 7 4 12 17 12 12 0 18 5 15 10 -7 11
-45 13 -69 4 -12 -5 -13 -9 -3 -24 6 -11 9 -21 6 -24 -3 -3 -44 -9 -92 -12
-81 -6 -105 -15 -74 -27 6 -3 -3 -6 -21 -6 -18 -1 -41 5 -52 11 -15 10 -27 10
-50 1 -17 -7 -32 -7 -36 -2 -11 18 -144 8 -144 -12 0 -5 6 -6 14 -3 8 3 24 -4
35 -15 25 -25 71 -28 71 -6 0 15 26 20 54 9 25 -10 19 -24 -10 -24 -22 0 -24
-2 -14 -15 6 -8 8 -20 4 -26 -5 -8 -3 -9 5 -4 9 5 12 2 9 -11 -3 -16 -12 -19
-53 -16 -37 2 -53 -2 -62 -14 -9 -12 -16 -13 -32 -4 -12 6 -21 15 -21 19 0 5
-20 14 -45 20 -25 6 -51 20 -57 31 -11 17 -24 20 -82 20 -75 0 -186 -19 -186
-32 0 -4 -27 -8 -60 -8 -54 0 -62 3 -71 24 -8 17 -8 29 0 44 8 15 7 23 -4 32
-10 8 -14 30 -13 66 1 43 -2 57 -18 68 -10 8 -20 10 -22 5 -2 -5 -8 -9 -13 -9
-13 0 -5 36 25 112 14 35 26 73 26 84 0 17 15 45 52 96 10 14 7 23 -19 56 -26
33 -30 45 -26 78 3 21 12 47 21 57 14 16 14 19 2 27 -8 6 -10 10 -5 10 6 0 3
5 -5 10 -8 6 -27 7 -42 4 -20 -4 -30 0 -42 18 -23 32 -50 14 -54 -38 -2 -31
-8 -42 -29 -51 -15 -7 -33 -13 -40 -13 -7 0 -13 -4 -13 -8 0 -5 -24 -10 -52
-11 -57 -2 -87 -9 -186 -47 -34 -13 -71 -24 -81 -24 -23 0 -61 -33 -61 -54 0
-9 -5 -16 -11 -16 -7 0 -10 -12 -7 -29 2 -17 1 -28 -3 -26 -4 3 -12 -2 -19
-10 -10 -12 -9 -15 4 -15 9 0 16 -4 16 -10 0 -5 -12 -10 -26 -10 -14 0 -23 4
-19 10 3 6 1 10 -5 10 -6 0 -8 5 -5 10 3 6 -1 10 -9 10 -9 0 -16 9 -16 20 0
11 -5 20 -11 20 -28 0 -51 51 -29 65 6 3 10 13 10 21 0 8 -4 12 -10 9 -9 -5
-15 15 -11 38 0 4 -7 7 -16 7 -14 0 -15 2 -4 9 9 6 10 11 2 15 -6 4 -11 13
-11 19 0 7 4 6 10 -3 16 -25 20 -5 5 24 -8 16 -15 36 -15 45 0 9 -7 25 -15 35
-8 10 -12 24 -8 30 3 6 2 8 -2 3 -14 -12 -41 21 -66 83 -13 34 -32 64 -46 71
-12 6 -30 28 -39 48 -9 20 -27 50 -40 68 -13 17 -24 37 -24 43 0 6 -4 9 -8 6
-4 -2 -9 11 -10 30 -2 19 2 34 8 34 5 0 10 18 10 40 0 26 5 40 13 40 7 0 19
17 26 37 8 20 22 46 33 57 11 12 18 30 15 43 -2 14 0 20 8 17 13 -5 45 21 45
37 0 5 3 8 8 7 16 -4 52 14 52 28 0 8 7 14 15 14 8 0 15 -8 15 -18 0 -13 8
-18 28 -17 26 0 27 -2 26 -44 -1 -30 -8 -49 -20 -58 -10 -7 -20 -25 -22 -41
-2 -15 -10 -31 -18 -35 -10 -6 -13 -17 -9 -35 3 -15 1 -41 -4 -59 -8 -26 -6
-35 10 -49 10 -9 19 -29 19 -44 0 -28 43 -68 65 -61 6 1 7 0 3 -4 -10 -11 17
-35 39 -35 10 0 35 -8 55 -19 37 -19 71 -27 143 -37 22 -4 45 -7 50 -8 6 0 12
-3 15 -6 6 -6 105 -40 139 -48 44 -9 137 3 147 20 3 5 -5 26 -18 46 -48 72
-58 92 -58 112 0 11 -20 44 -44 74 -26 32 -46 69 -50 92 -4 22 -16 53 -26 69
-10 17 -21 58 -24 93 -3 35 -8 68 -12 73 -13 22 -21 134 -10 141 16 11 21 10
43 -10 24 -20 39 -77 24 -87 -18 -11 -12 -23 8 -18 22 6 30 -5 33 -41 1 -14 6
-26 10 -26 4 0 8 -7 8 -15 0 -14 9 -17 144 -49 77 -18 99 -33 123 -83 20 -42
12 -62 -21 -56 -29 6 -31 1 -15 -29 19 -35 62 -75 108 -99 38 -19 79 -50 103
-76 4 -5 16 -18 27 -30 12 -13 27 -20 36 -17 20 8 55 -23 55 -47 0 -11 9 -24
20 -31 11 -7 20 -21 20 -30 0 -11 8 -18 20 -18 10 0 30 -12 44 -26 19 -22 29
-25 53 -20 40 10 55 11 80 2 19 -6 23 -4 23 13 0 12 5 30 12 40 11 18 13 17
39 -12 16 -17 26 -34 23 -38 -12 -20 10 -39 47 -39 32 0 39 3 39 20 0 11 5 20
10 20 6 0 10 11 10 25 0 28 25 44 41 28 7 -7 22 -7 45 0 32 10 33 11 17 29 -9
10 -22 18 -30 18 -21 0 -15 16 12 30 17 9 22 17 15 24 -21 21 -9 28 39 22 36
-5 50 -3 53 6 7 18 51 -6 63 -35 12 -26 40 -34 48 -13 6 14 -70 96 -120 131
-22 16 -31 49 -15 59 9 5 6 81 -3 96 -3 6 1 7 10 4 9 -4 21 -18 26 -31 5 -13
14 -21 19 -18 6 4 17 1 25 -5 11 -9 15 -9 15 -1 0 18 22 13 47 -11 23 -21 23
-21 23 -1 0 11 9 32 20 46 11 14 20 30 20 36 0 6 5 11 10 11 6 0 10 -6 10 -14
0 -16 38 -66 51 -66 15 0 10 136 -7 178 -8 22 -26 45 -40 52 -13 7 -24 19 -24
27 0 7 -6 13 -14 13 -8 0 -17 6 -19 13 -10 24 -7 -21 3 -47 7 -20 6 -26 -4
-26 -8 0 -16 -4 -18 -8 -1 -5 -18 -12 -36 -15 -28 -6 -35 -4 -39 12 -6 25 -53
47 -64 30 -6 -10 -11 -10 -23 0 -9 7 -14 17 -11 21 3 5 1 11 -5 15 -11 7 -33
-13 -38 -35 -2 -7 -10 -18 -18 -24 -12 -9 -10 -18 12 -53 14 -24 29 -43 35
-43 5 0 9 -5 9 -12 0 -9 -3 -9 -12 0 -15 15 -58 16 -58 1 0 -7 -9 0 -20 14
-11 13 -32 28 -46 31 -15 4 -33 14 -41 21 -16 17 -51 19 -71 6 -10 -6 -8 -10
10 -14 12 -4 32 -7 44 -7 11 0 37 -18 58 -40 20 -22 44 -40 53 -40 11 0 8 -6
-11 -21 -25 -20 -28 -20 -45 -5 -10 9 -21 13 -25 9 -4 -4 -4 0 -1 10 4 9 1 22
-7 30 -20 20 -79 47 -89 41 -17 -10 -9 -20 26 -33 38 -13 47 -31 16 -31 -11 0
-36 16 -57 35 -20 19 -40 32 -44 30 -5 -3 -15 -2 -24 1 -11 4 -13 11 -6 24 8
15 2 18 -52 24 -33 3 -93 6 -132 6 -39 0 -77 4 -85 9 -20 13 -5 48 24 55 15 4
22 11 19 20 -3 9 3 17 16 21 25 8 60 40 60 55 0 6 17 10 38 10 38 0 85 23 122
60 11 11 30 20 42 20 16 0 19 3 11 11 -9 9 -20 9 -44 0 -22 -8 -36 -8 -43 -1
-5 5 -28 10 -49 10 -30 0 -38 3 -34 14 4 10 -2 16 -21 18 -25 3 -23 5 28 35
36 22 48 33 35 33 -12 0 -4 8 23 20 43 19 49 40 11 40 -37 0 -21 29 19 32 23
2 36 8 34 16 -1 6 8 12 20 12 13 1 34 7 48 15 40 23 81 18 124 -15 22 -17 45
-30 51 -30 16 0 42 -31 47 -55 2 -12 13 -21 27 -23 21 -3 23 -1 17 25 -11 46
-80 173 -93 173 -16 0 -17 -37 -2 -42 6 -2 10 -11 8 -20 -3 -13 -17 -8 -71 29
-36 24 -77 46 -90 49 -46 8 -143 32 -130 33 6 1 12 8 12 16 0 11 -12 15 -51
15 -63 0 -63 21 0 25 44 4 70 15 34 15 -15 0 -22 8 -25 30 -3 16 -1 35 3 41 4
7 -12 30 -37 55 -24 23 -44 48 -44 55 0 7 -21 32 -46 56 -35 33 -54 43 -79 43
-25 0 -35 5 -40 21 -5 16 -12 19 -30 15 -15 -4 -31 2 -49 19 -15 14 -35 25
-45 25 -9 0 -22 5 -27 10 -6 6 -28 13 -50 15 -55 5 -134 28 -134 38 0 5 19 6
41 2 23 -4 58 -9 78 -11 58 -5 101 -16 107 -25 3 -5 20 -9 39 -9 30 0 75 -30
75 -49 0 -13 109 -47 197 -61 37 -6 73 -23 126 -58 41 -27 83 -53 95 -56 12
-4 38 -27 58 -51 26 -29 48 -45 71 -50 25 -4 43 -19 72 -58 21 -29 59 -66 85
-82 25 -16 46 -32 46 -35 0 -3 8 -15 18 -26 24 -27 52 -79 52 -97 0 -8 9 -26
20 -40 11 -14 20 -32 20 -40 0 -8 13 -34 30 -58 16 -24 35 -62 41 -83 6 -21
16 -44 22 -50 25 -24 68 -47 77 -41 13 8 13 42 0 50 -5 3 -10 14 -10 24 0 10
-9 25 -20 32 -11 8 -21 23 -23 35 -1 11 -13 33 -25 49 -12 15 -22 34 -22 41 0
7 -11 21 -25 30 -14 9 -25 22 -25 30 0 8 -16 34 -35 60 -36 46 -42 68 -26 93
7 11 13 11 32 -3 18 -12 35 -15 70 -10 42 6 56 1 148 -45 56 -28 106 -51 113
-51 6 0 19 -10 29 -21 10 -12 25 -19 32 -16 7 3 35 -6 61 -19 26 -13 51 -22
55 -20 4 3 22 -4 40 -15 27 -16 39 -18 64 -10 18 6 57 12 88 14 30 3 65 9 76
16 12 6 31 11 43 11 13 0 24 9 30 26 6 14 23 29 39 35 15 5 33 21 39 34 7 14
16 25 22 25 6 0 15 12 21 28 12 34 46 59 89 66 18 2 45 13 59 23 14 11 44 24
66 31 95 28 149 42 152 39 4 -5 -25 -105 -43 -147 -9 -19 -38 -79 -65 -132
-34 -67 -49 -108 -47 -130 1 -18 -5 -44 -13 -58 -9 -14 -17 -55 -18 -95 -2
-38 -5 -73 -7 -77 -6 -9 40 -58 53 -58 17 0 22 37 7 58 -16 23 -8 91 12 99 8
3 14 13 14 22 0 9 4 21 8 27 5 5 18 38 30 74 44 140 91 296 96 322 4 15 12 33
19 40 7 7 23 30 36 51 12 20 27 37 32 37 5 0 9 8 9 18 1 10 8 4 20 -18 17 -30
19 -32 20 -12 0 13 6 35 14 50 8 16 14 37 13 47 -1 13 4 20 14 19 9 -1 16 4
16 10 0 16 33 66 44 66 13 0 12 -6 -16 -59 -13 -27 -30 -51 -37 -53 -8 -3 -13
-32 -15 -89 -2 -107 -1 -101 -12 -94 -6 3 -15 -5 -22 -17 -7 -13 -16 -25 -20
-28 -4 -3 -9 -19 -12 -35 -2 -19 -12 -34 -27 -42 -25 -12 -38 -34 -39 -65 -1
-30 16 -20 34 18 13 27 20 33 28 25 9 -9 9 -16 0 -30 -16 -26 -27 -91 -16 -91
12 0 33 67 33 103 0 14 6 30 14 34 16 10 36 46 36 68 0 9 6 22 13 30 6 7 23
27 37 44 14 17 30 31 37 31 7 0 13 6 13 13 0 19 40 59 53 54 7 -2 11 -11 9
-19 -3 -21 38 -37 67 -26 13 4 26 6 28 4 7 -7 -29 -42 -50 -49 -28 -10 -14
-32 18 -29 15 2 32 -3 36 -10 6 -9 32 -13 84 -13 42 0 76 -4 76 -10 1 -5 -13
-18 -32 -28 -19 -10 -33 -22 -32 -27 2 -6 -15 -10 -38 -10 -26 0 -38 -4 -34
-11 4 -6 23 -9 43 -7 30 2 37 -1 40 -17 2 -11 11 -25 19 -32 8 -6 12 -16 8
-22 -3 -6 -1 -12 4 -12 26 -3 30 -4 37 -11 4 -5 2 -8 -5 -8 -8 0 -11 -8 -8
-19 3 -15 0 -18 -17 -14 -19 4 -20 3 -3 -7 18 -11 18 -12 0 -26 -16 -13 -10
-14 47 -8 36 4 83 13 105 20 21 7 41 11 44 9 2 -3 -1 -5 -7 -5 -22 0 -12 -20
13 -26 14 -3 25 -9 25 -14 0 -12 -36 -40 -52 -40 -9 0 -26 -9 -39 -20 l-24
-20 37 2 c35 2 69 -14 56 -27 -3 -3 -32 -10 -64 -17 -81 -15 -93 -19 -74 -25
30 -9 60 -27 60 -35 0 -4 -22 -8 -50 -8 -27 0 -59 -4 -72 -9 -13 -5 -49 -16
-80 -25 -42 -12 -68 -28 -102 -63 -25 -25 -46 -53 -46 -60 0 -8 -10 -35 -22
-61 -27 -61 -37 -106 -27 -124 5 -9 -1 -24 -18 -42 -14 -15 -22 -30 -18 -34 3
-3 10 0 15 7 4 8 22 14 39 13 17 0 33 4 36 9 12 18 34 9 52 -21 9 -16 25 -30
34 -30 17 0 99 91 99 109 0 10 28 15 48 9 4 -2 7 -16 8 -33 1 -51 14 -89 26
-77 6 6 11 22 11 35 -1 35 39 53 61 28 9 -10 16 -23 16 -29 0 -6 9 -14 20 -17
11 -4 18 -11 15 -16 -4 -5 4 -5 19 1 14 5 27 6 27 2 2 -8 1 -10 -6 -53 l-6
-33 25 25 c13 14 28 38 32 53 4 16 15 31 25 33 10 3 16 9 14 14 -3 4 -13 6
-23 3 -16 -5 -16 -4 1 9 9 8 15 21 12 30 -4 8 4 25 19 40 17 17 23 32 19 46
-4 17 -2 20 12 14 13 -4 16 -3 11 6 -5 8 5 25 28 47 20 19 36 38 36 43 0 5 10
11 21 13 16 2 23 11 25 33 2 16 11 35 21 42 15 12 16 18 5 45 -11 31 -10 34
23 66 19 19 35 38 35 43 0 5 7 9 15 9 8 0 15 -4 15 -10 0 -5 -4 -10 -10 -10
-5 0 -10 -8 -10 -18 0 -21 -30 -52 -49 -52 -14 0 -10 -22 5 -27 5 -2 27 13 49
32 22 19 43 35 47 35 14 0 19 41 8 55 -16 19 0 39 46 61 19 9 34 24 34 33 0
10 14 23 35 31 23 9 40 25 51 49 9 20 20 38 25 41 11 7 14 81 4 104 -6 13 -3
21 8 28 29 16 19 37 -20 44 -34 6 -35 8 -14 16 12 4 27 6 32 2 5 -3 9 2 9 10
0 8 -4 17 -9 20 -4 3 -6 17 -3 31 3 20 0 27 -16 32 -23 6 -39 36 -22 41 6 2
17 11 26 19 13 14 13 17 -1 32 -8 10 -15 23 -15 29 0 7 -7 12 -15 12 -24 0
-17 26 11 45 27 17 27 16 10 130 0 6 -5 13 -11 17 -5 4 1 11 15 16 l24 9 -22
14 c-27 17 -28 29 -3 29 11 0 23 -9 26 -20 3 -11 10 -20 14 -20 27 0 76 -258
66 -347 -8 -77 -9 -278 -1 -291 3 -5 1 -59 -4 -120 -7 -88 -15 -125 -40 -184
l-31 -73 16 -64 c13 -52 14 -66 3 -73 -10 -8 -10 -11 0 -15 6 -2 12 -14 12
-24 0 -30 20 -12 21 19 l1 27 8 -30 c7 -29 8 -29 9 9 1 31 4 37 13 28 17 -17
43 -15 59 4 8 10 23 14 41 12 16 -3 33 1 39 9 14 16 135 18 144 2 4 -6 14 -8
22 -5 8 3 11 1 8 -4 -6 -9 8 -14 28 -11 4 0 7 -4 7 -10 0 -6 9 -9 20 -6 25 6
37 -8 65 -85 12 -35 27 -62 33 -61 5 1 18 -7 27 -17 10 -11 26 -20 35 -20 23
0 36 -17 45 -60 16 -73 27 -80 126 -80 59 0 89 -4 89 -11 0 -6 9 -9 20 -6 11
3 23 1 26 -4 3 -5 10 -7 15 -4 5 4 9 1 9 -4 0 -6 9 -11 20 -11 11 0 20 -5 20
-10 0 -6 11 -15 25 -20 14 -5 25 -15 25 -21 0 -15 59 -69 76 -69 7 0 11 -6 8
-14 -4 -10 6 -16 37 -21 27 -5 37 -10 29 -15 -9 -6 0 -12 26 -19 21 -6 45 -11
52 -11 9 0 12 273 12 1330 l0 1330 -3250 0 -3250 0 0 -745z m4959 36 c9 -6 4
-10 -18 -13 -32 -5 -52 6 -29 15 20 8 32 8 47 -2z m184 -11 c21 -25 22 -36 2
-43 -9 -4 -20 5 -30 25 -18 38 -18 38 -2 38 7 0 20 -9 30 -20z m-278 1 c-3 -5
-18 -12 -34 -16 -16 -3 -32 -13 -35 -21 -3 -8 -16 -14 -28 -14 -22 1 -22 1 -4
15 28 21 7 18 -29 -4 -36 -21 -104 -18 -82 3 22 22 101 44 160 45 33 1 56 -3
52 -8z m-271 -76 c-10 -8 -41 -22 -67 -31 -32 -11 -52 -24 -59 -40 -7 -15 -17
-23 -26 -19 -7 3 -23 5 -34 5 -17 0 -18 3 -9 14 16 19 90 58 99 52 4 -2 25 4
47 14 49 24 77 26 49 5z m-231 -117 c-13 -12 -26 -18 -30 -14 -4 4 1 14 11 22
31 22 43 17 19 -8z m-3103 -18 c11 -8 5 -10 -22 -8 -21 1 -38 6 -38 10 0 11
42 10 60 -2z m3050 -7 c0 -5 -22 -26 -48 -48 -26 -22 -62 -54 -79 -71 -41 -40
-62 -48 -70 -28 -4 10 3 23 18 35 13 11 52 42 87 69 58 46 92 62 92 43z m120
-61 c0 -12 -23 -32 -37 -32 -17 0 -17 27 0 33 19 8 37 8 37 -1z m-2806 -114
c8 -5 7 -8 -1 -8 -27 0 -41 12 -35 32 5 19 5 19 15 2 6 -11 15 -22 21 -26z
m2800 27 c6 -16 -3 -19 -29 -9 -13 5 -14 8 -3 15 19 12 25 11 32 -6z m-2713
-91 c11 -14 9 -15 -16 -12 -16 1 -30 9 -33 16 -6 18 33 15 49 -4z m2599 -23
c0 -10 -38 -18 -62 -13 -24 5 -22 15 5 28 22 10 57 1 57 -15z m50 -31 c0 -21
-15 -27 -25 -10 -7 12 2 30 16 30 5 0 9 -9 9 -20z m-2535 -40 c3 -5 2 -10 -4
-10 -5 0 -13 5 -16 10 -3 6 -2 10 4 10 5 0 13 -4 16 -10z m2500 -40 c15 -7 10
-9 -22 -9 -24 -1 -43 4 -43 9 0 12 37 12 65 0z m-2500 -22 c7 -8 5 -9 -6 -5
-9 3 -33 2 -53 -3 -38 -8 -48 2 -18 19 19 12 61 6 77 -11z m2382 16 c-3 -3
-12 -4 -19 -1 -8 3 -5 6 6 6 11 1 17 -2 13 -5z m-3219 -156 c-3 -7 -11 -13
-18 -13 -7 0 -15 6 -17 13 -3 7 4 12 17 12 13 0 20 -5 18 -12z m943 -39 c-18
-11 -43 -19 -55 -17 -16 3 -10 7 24 19 63 23 70 22 31 -2z m-951 -36 c0 -13
-3 -13 -15 -3 -8 7 -15 19 -15 27 0 13 3 13 15 3 8 -7 15 -19 15 -27z m18
-142 c2 -17 1 -31 -2 -31 -16 0 -46 37 -46 57 0 19 3 21 23 14 15 -6 23 -18
25 -40z m4833 -27 c8 -4 9 -3 5 4 -5 8 0 12 13 12 12 0 20 -5 19 -11 -2 -7 13
-14 32 -16 19 -3 37 -9 38 -14 2 -5 15 -9 28 -9 13 0 24 -4 24 -9 0 -10 20
-18 61 -26 29 -6 31 -8 36 -51 4 -37 -23 -124 -38 -124 -5 0 -9 -7 -9 -15 0
-11 -11 -15 -36 -15 -19 0 -33 -4 -30 -9 8 -12 -20 -22 -40 -14 -13 5 -13 8
-2 15 13 9 5 9 -94 -8 -25 -4 -43 -2 -53 6 -13 10 -19 10 -35 -5 -18 -16 -20
-16 -20 -2 0 10 7 17 15 17 19 0 19 4 -1 46 -9 19 -23 34 -30 34 -8 0 -14 7
-14 15 0 8 -5 15 -10 15 -11 0 -26 11 -66 47 -26 24 -32 51 -11 57 49 15 52
17 37 26 -8 6 -13 10 -10 11 3 0 34 8 70 17 67 18 100 20 121 6z m459 -314 c0
-5 -7 -7 -15 -4 -8 4 -15 8 -15 10 0 2 7 4 15 4 8 0 15 -4 15 -10z m-4052
-245 c-11 -12 -43 19 -34 34 4 7 13 4 25 -7 10 -10 14 -21 9 -27z m-301 -207
c-3 -8 -6 -5 -6 6 -1 11 2 17 5 13 3 -3 4 -12 1 -19z m-1600 -890 c-3 -8 -6
-5 -6 6 -1 11 2 17 5 13 3 -3 4 -12 1 -19z m2361 -20 c27 -27 14 -46 -35 -50
-59 -6 -70 2 -48 36 19 28 62 35 83 14z m-2428 -142 c0 -13 10 -31 22 -42 12
-10 18 -14 15 -7 -4 6 -4 14 1 17 15 9 18 -82 3 -97 -6 -6 -5 -14 4 -23 22
-22 27 -17 21 21 l-6 36 22 -21 c12 -11 28 -20 35 -20 7 0 13 -11 13 -25 0
-14 6 -25 13 -25 8 0 7 -4 -3 -10 -11 -7 -12 -12 -4 -17 7 -5 14 -17 16 -28 2
-11 10 -19 16 -18 7 2 12 -6 12 -17 0 -22 -15 -27 -23 -7 -3 6 -5 -1 -4 -18 1
-31 7 -40 42 -77 11 -11 15 -18 9 -15 -6 3 -11 0 -11 -7 0 -8 5 -12 11 -10 7
3 19 -1 28 -8 14 -11 16 -22 9 -68 -8 -54 -9 -54 -10 -12 -1 38 -3 42 -27 42
-15 0 -23 4 -19 11 4 6 -2 13 -14 16 -12 3 -21 13 -21 25 0 10 -4 17 -9 13 -5
-3 -13 -1 -16 5 -4 6 -1 9 6 8 6 -2 14 3 16 11 4 10 -3 12 -28 9 -19 -3 -41
-7 -49 -10 -8 -3 -12 -3 -7 -1 4 3 7 27 7 53 0 39 -4 52 -20 60 -11 6 -23 22
-26 35 -3 14 -12 25 -20 25 -16 0 -33 29 -33 56 0 37 -6 59 -21 71 -10 9 -11
12 -2 13 7 0 12 14 12 38 0 31 4 38 20 39 15 1 20 -4 20 -21z m2690 14 c0 -5
-4 -10 -10 -10 -5 0 -10 5 -10 10 0 6 5 10 10 10 6 0 10 -4 10 -10z m35 -19
c-6 -5 -25 10 -25 20 0 5 6 4 14 -3 8 -7 12 -15 11 -17z m-461 -7 c9 -22 -3
-32 -14 -14 -12 19 -12 30 -1 30 5 0 12 -7 15 -16z m-225 -41 c12 -13 11 -14
-5 -11 -37 6 -20 -26 19 -35 20 -5 37 -15 37 -23 0 -9 -11 -13 -37 -12 -21 1
-54 -1 -73 -5 -47 -10 -57 0 -52 53 l4 45 46 1 c28 1 52 -5 61 -13z m-732 -28
c-4 -8 -17 -15 -29 -15 l-23 1 24 20 c26 21 37 19 28 -6z m877 -31 c20 -20 20
-34 0 -34 -8 0 -13 4 -10 9 3 4 -5 6 -18 4 -23 -5 -44 12 -31 25 3 3 10 0 15
-8 8 -13 10 -12 10 3 0 21 14 22 34 1z m-708 -68 c-7 -28 12 -46 25 -25 7 11
9 9 9 -7 0 -36 -66 -51 -197 -46 -48 2 -52 9 -23 40 14 15 29 21 46 18 16 -3
32 2 44 14 19 19 40 27 79 29 20 1 22 -3 17 -23z m-1651 -156 c-3 -5 5 -15 19
-22 14 -6 26 -15 26 -19 0 -4 14 -12 30 -18 17 -5 30 -15 30 -20 0 -16 -16
-13 -30 4 -14 17 -34 10 -23 -8 5 -8 2 -8 -9 0 -8 7 -18 10 -21 7 -3 -3 -16 3
-28 15 -19 17 -20 21 -6 21 9 0 17 5 17 10 0 16 -33 26 -38 12 -2 -7 -8 -9
-13 -6 -6 3 -16 1 -23 -5 -11 -9 -12 -6 -8 14 4 22 10 25 44 25 23 0 37 -4 33
-10z m276 -120 c18 0 28 4 24 10 -3 6 -2 10 3 10 11 0 23 -25 16 -32 -2 -3
-21 -2 -42 1 -28 5 -37 11 -38 26 -1 15 0 16 3 3 3 -12 14 -18 34 -18z m49
-55 c0 -13 -12 -14 -48 -6 -2 1 0 6 3 11 10 16 45 12 45 -5z m47 -21 c-3 -3
-12 -4 -19 -1 -8 3 -5 6 6 6 11 1 17 -2 13 -5z m3 -24 c0 -5 -7 -10 -16 -10
-8 0 -12 5 -9 10 3 6 10 10 16 10 5 0 9 -4 9 -10z m2027 -546 c-3 -3 -12 -4
-19 -1 -8 3 -5 6 6 6 11 1 17 -2 13 -5z m153 -74 c-22 -14 -50 -12 -50 4 0 8
10 16 23 18 29 5 47 -10 27 -22z m110 20 c0 -5 -6 -10 -14 -10 -8 0 -23 -3
-33 -6 -16 -5 -16 -4 1 10 22 18 46 21 46 6z m1080 -290 c0 -5 -4 -10 -9 -10
-6 0 -13 5 -16 10 -3 6 1 10 9 10 9 0 16 -4 16 -10z m-86 -47 c7 -18 -17 -43
-41 -43 -17 0 -16 5 3 35 19 29 29 31 38 8z m-1888 -79 c-4 -14 -11 -22 -17
-18 -8 4 -7 9 1 14 7 4 9 13 6 19 -4 6 -4 16 0 23 11 18 17 -7 10 -38z m44 11
c0 -8 -4 -15 -10 -15 -5 0 -10 7 -10 15 0 8 5 15 10 15 6 0 10 -7 10 -15z
m190 -274 c0 -11 -9 -21 -21 -24 -12 -3 -18 -10 -14 -16 3 -6 10 -9 15 -6 5 3
11 1 15 -5 3 -5 -1 -10 -10 -10 -19 0 -54 -20 -75 -42 -14 -16 -17 -16 -35 -2
-14 11 -16 18 -7 21 6 3 9 9 6 14 -3 6 0 16 6 24 7 8 9 15 4 15 -4 0 1 7 12
15 10 8 31 15 46 15 15 0 30 5 33 10 10 17 25 11 25 -9z m2000 -397 c0 -14 -3
-14 -15 -4 -8 7 -15 14 -15 16 0 2 7 4 15 4 8 0 15 -7 15 -16z m810 -314 c0
-5 -2 -10 -4 -10 -3 0 -8 5 -11 10 -3 6 -1 10 4 10 6 0 11 -4 11 -10z m-554
-196 c28 -29 29 -34 11 -58 -11 -15 -17 -16 -33 -6 -20 13 -55 76 -46 85 13
13 47 3 68 -21z"/>
<path d="M2218 2833 c7 -3 16 -2 19 1 4 3 -2 6 -13 5 -11 0 -14 -3 -6 -6z"/>
<path d="M1940 5221 c0 -27 4 -31 37 -37 21 -4 44 -13 51 -21 19 -19 26 -10
12 16 -6 12 -19 21 -30 21 -10 0 -25 8 -32 18 -25 34 -38 35 -38 3z"/>
<path d="M3938 5131 c-9 -10 -24 -23 -34 -29 -20 -11 -12 -44 9 -36 16 6 54
70 46 78 -3 3 -12 -3 -21 -13z"/>
<path d="M4131 5126 c-7 -8 -8 -17 -3 -20 6 -3 12 3 15 14 6 24 4 25 -12 6z"/>
<path d="M2056 5114 c-6 -17 7 -26 28 -18 22 8 20 21 -3 27 -11 3 -22 -1 -25
-9z"/>
<path d="M2004 5108 c-3 -4 -3 -8 0 -8 2 0 11 -3 20 -6 10 -4 16 -1 16 8 0 16
-27 20 -36 6z"/>
<path d="M3960 4874 c0 -8 5 -12 10 -9 6 3 10 10 10 16 0 5 -4 9 -10 9 -5 0
-10 -7 -10 -16z"/>
<path d="M2326 4841 c-4 -7 -5 -15 -2 -18 9 -9 19 4 14 18 -4 11 -6 11 -12 0z"/>
<path d="M3841 4772 c-11 -27 -11 -34 4 -54 l17 -23 -5 28 c-3 21 -1 27 10 23
10 -4 11 -1 5 12 -5 9 -11 23 -14 31 -2 9 -9 3 -17 -17z"/>
<path d="M2171 4706 c-10 -12 -8 -17 11 -27 13 -7 28 -19 34 -27 16 -21 25 -1
15 34 -8 33 -41 44 -60 20z"/>
<path d="M3985 4709 c-4 -6 -5 -13 -2 -16 7 -7 27 6 27 18 0 12 -17 12 -25 -2z"/>
<path d="M4190 4710 c-13 -8 -13 -10 2 -10 9 0 20 5 23 10 8 13 -5 13 -25 0z"/>
<path d="M3870 4685 c0 -8 4 -15 10 -15 5 0 7 7 4 15 -4 8 -8 15 -10 15 -2 0
-4 -7 -4 -15z"/>
<path d="M4142 4688 c-6 -6 -12 -19 -12 -27 0 -13 2 -13 16 1 9 9 15 21 13 27
-3 9 -8 8 -17 -1z"/>
<path d="M2340 4676 c0 -2 7 -7 16 -10 8 -3 12 -2 9 4 -6 10 -25 14 -25 6z"/>
<path d="M3857 4640 c-9 -11 -29 -20 -45 -20 -40 0 -56 -19 -35 -42 9 -10 22
-18 28 -18 7 0 16 -20 19 -45 4 -25 11 -45 15 -45 14 0 30 53 27 90 -2 23 4
43 16 59 10 13 18 28 18 32 0 16 -25 9 -43 -11z"/>
<path d="M4101 4621 c-24 -21 -31 -44 -36 -115 -2 -27 -9 -69 -15 -93 -7 -24
-10 -46 -7 -50 12 -11 38 20 35 42 -1 12 10 38 25 58 15 20 27 43 27 52 0 9 5
26 12 38 6 12 13 36 15 54 3 27 0 33 -15 33 -11 0 -29 -9 -41 -19z"/>
<path d="M3906 4578 c3 -24 6 -60 5 -80 0 -43 15 -50 29 -13 5 14 16 25 24 25
17 0 23 23 18 61 -3 18 -13 29 -36 37 -46 17 -46 17 -40 -30z"/>
<path d="M2640 4561 c0 -6 5 -13 10 -16 6 -3 10 1 10 9 0 9 -4 16 -10 16 -5 0
-10 -4 -10 -9z"/>
<path d="M3740 4543 c0 -17 -6 -33 -12 -36 -9 -3 -7 -7 5 -12 9 -4 25 -4 35 0
11 5 13 9 5 12 -7 3 -13 12 -13 21 0 10 -5 24 -10 32 -7 11 -10 7 -10 -17z"/>
<path d="M2180 4500 c0 -5 7 -7 15 -4 8 4 15 8 15 10 0 2 -7 4 -15 4 -8 0 -15
-4 -15 -10z"/>
<path d="M4918 4436 c-22 -16 -22 -22 -2 -30 21 -8 45 11 37 30 -6 17 -13 17
-35 0z"/>
<path d="M4715 4270 c-3 -5 -1 -10 4 -10 6 0 11 5 11 10 0 6 -2 10 -4 10 -3 0
-8 -4 -11 -10z"/>
<path d="M2332 4234 c1 -9 9 -19 16 -22 9 -3 13 2 10 14 -1 9 -9 19 -16 22 -9
3 -13 -2 -10 -14z"/>
<path d="M2377 4233 c-13 -12 -7 -23 13 -23 11 0 20 7 20 15 0 15 -21 21 -33
8z"/>
<path d="M5231 4204 c0 -11 3 -14 6 -6 3 7 2 16 -1 19 -3 4 -6 -2 -5 -13z"/>
<path d="M5263 4205 c0 -8 4 -15 9 -15 4 0 8 4 8 9 0 6 -4 12 -8 15 -5 3 -9
-1 -9 -9z"/>
<path d="M1380 4157 c0 -27 13 -36 26 -16 3 6 -1 18 -10 27 -15 15 -16 14 -16
-11z"/>
<path d="M5211 4122 c-18 -83 -3 -330 20 -316 5 3 9 -4 9 -15 0 -12 12 -35 28
-52 35 -40 41 -57 31 -94 -10 -33 -2 -95 12 -95 16 0 10 -43 -8 -63 -13 -14
-18 -36 -18 -77 0 -43 -5 -63 -19 -79 -11 -12 -15 -21 -11 -21 5 0 4 -5 -3
-12 -7 -7 -12 -22 -12 -34 0 -13 -4 -25 -9 -29 -5 -3 1 -16 13 -30 23 -24 90
-40 333 -75 35 -5 71 -13 80 -19 10 -5 45 -12 78 -16 33 -4 91 -13 130 -20 38
-8 73 -11 78 -8 4 2 13 0 20 -6 7 -5 28 -13 47 -16 58 -10 154 -37 168 -48 9
-8 16 -7 20 0 4 7 19 14 32 16 14 2 34 8 45 12 25 11 50 35 36 35 -5 0 -11 10
-13 23 -2 14 -15 27 -35 36 -18 8 -33 21 -33 28 0 7 -7 13 -15 13 -22 0 -114
63 -114 78 -1 6 -5 12 -10 12 -9 0 -63 41 -123 93 -21 17 -42 43 -48 57 -5 14
-14 32 -20 40 -5 8 -19 36 -30 63 -11 26 -25 47 -30 47 -6 0 -10 6 -10 13 0
19 -49 114 -50 97 -2 -30 -37 100 -44 164 -2 10 -11 25 -21 32 -18 13 -18 14
-1 14 16 0 15 4 -8 26 -14 15 -27 31 -27 35 -1 5 -2 15 -3 22 0 6 -7 13 -13
13 -7 1 -17 2 -23 3 -16 2 -42 59 -28 63 6 2 -15 10 -48 17 -74 17 -95 27 -88
46 5 12 -2 15 -30 15 -27 0 -34 3 -30 15 7 18 -21 21 -33 3 -4 -7 -17 -20 -28
-28 -11 -8 -17 -10 -13 -6 4 5 0 15 -10 23 -9 8 -12 12 -5 9 6 -4 14 -3 17 2
4 7 -10 11 -51 14 -7 1 -13 5 -13 10 0 4 -11 8 -24 8 -13 0 -26 5 -28 11 -2 6
-9 -16 -17 -49z m252 -41 c4 -17 0 -20 -36 -19 -39 0 -73 19 -60 32 4 3 25 6
49 6 33 0 43 -4 47 -19z"/>
<path d="M1346 4163 c-4 -5 -19 -8 -34 -8 -33 0 -40 -21 -10 -29 37 -10 68 -7
68 7 0 19 -16 38 -24 30z"/>
<path d="M4377 4124 c-10 -11 4 -33 18 -28 8 3 11 12 8 20 -5 15 -16 18 -26 8z"/>
<path d="M5641 4004 c0 -11 3 -14 6 -6 3 7 2 16 -1 19 -3 4 -6 -2 -5 -13z"/>
<path d="M171 3694 c0 -11 3 -14 6 -6 3 7 2 16 -1 19 -3 4 -6 -2 -5 -13z"/>
<path d="M2690 3611 c0 -22 16 -36 24 -22 8 12 -3 41 -15 41 -5 0 -9 -9 -9
-19z"/>
<path d="M3141 3484 c0 -11 3 -14 6 -6 3 7 2 16 -1 19 -3 4 -6 -2 -5 -13z"/>
<path d="M2685 3480 c-3 -5 -1 -10 4 -10 6 0 11 5 11 10 0 6 -2 10 -4 10 -3 0
-8 -4 -11 -10z"/>
<path d="M3795 3463 c-4 -16 -8 -35 -9 -43 -2 -8 -7 -24 -12 -35 -7 -18 -6
-19 11 -5 16 14 17 13 11 -8 -3 -12 -9 -31 -12 -42 -3 -11 -9 -20 -13 -20 -5
0 -14 -13 -21 -30 -15 -35 -37 -39 -43 -7 l-4 22 -2 -22 c-1 -28 -21 -31 -21
-3 0 11 -5 20 -11 20 -12 0 -1 -42 13 -51 6 -4 5 -8 -2 -11 -10 -3 -10 -9 -1
-26 7 -13 17 -20 24 -16 7 4 9 4 5 -1 -4 -4 -3 -14 3 -22 6 -7 8 -13 4 -13 -4
0 -3 -6 2 -12 17 -21 25 -68 12 -68 -8 0 -10 -13 -6 -39 3 -29 1 -41 -9 -45
-8 -3 -14 -12 -14 -21 0 -8 -7 -15 -15 -15 -8 0 -15 6 -15 14 0 7 -7 19 -15
26 -12 10 -13 7 -5 -20 5 -17 7 -37 4 -45 -7 -16 35 -77 48 -69 4 3 18 -2 30
-10 30 -21 38 -20 38 4 0 11 7 36 14 55 15 36 41 46 63 24 7 -7 23 -9 40 -5
15 4 61 10 103 12 47 3 91 12 119 25 42 20 101 74 101 93 0 17 45 76 58 76 6
0 12 5 12 11 0 8 4 8 13 0 10 -8 17 -7 25 1 8 8 15 6 28 -6 13 -13 31 -17 73
-15 54 2 77 -2 113 -22 23 -12 48 -12 48 1 0 6 6 10 14 10 20 0 30 38 16 55
-16 19 -4 35 26 35 17 0 24 5 24 20 0 17 5 19 25 14 18 -5 25 -2 25 9 0 8 5
17 12 19 7 3 8 10 4 17 -9 14 -39 11 -123 -15 -59 -19 -87 -10 -88 28 0 21 -4
23 -39 21 -22 -2 -50 -10 -64 -19 -16 -11 -35 -14 -58 -10 -19 3 -51 9 -71 12
-21 4 -40 10 -43 13 -9 12 -245 41 -278 35 -27 -6 -31 -4 -26 10 4 9 0 18 -9
22 -9 3 -13 13 -10 25 6 23 -18 34 -45 20 -16 -8 -21 -7 -26 5 -9 24 -7 42 3
26 6 -10 10 -10 21 3 11 13 9 15 -9 15 -12 0 -31 5 -41 10 -17 9 -20 6 -25
-17z m33 -5 c-6 -18 -28 -21 -28 -4 0 9 7 16 16 16 9 0 14 -5 12 -12z m235
-214 c8 -9 -21 -51 -41 -59 -32 -14 -122 -15 -122 -2 1 29 31 49 82 57 75 11
74 11 81 4z m572 -4 c3 -5 1 -10 -4 -10 -6 0 -11 5 -11 10 0 6 2 10 4 10 3 0
8 -4 11 -10z m-515 -160 c0 -26 -68 -76 -83 -61 -9 9 -8 15 6 22 9 6 24 23 32
39 16 32 45 32 45 0z m-129 -60 c5 0 9 -4 9 -10 0 -13 -57 -13 -64 -1 -7 11
14 21 32 15 8 -2 18 -4 23 -4z"/>
<path d="M2872 3447 c-2 -39 6 -52 36 -62 22 -6 22 -5 10 14 -7 12 -18 19 -24
17 -6 -2 -9 7 -6 24 2 15 0 30 -5 33 -5 3 -10 -9 -11 -26z"/>
<path d="M2620 3450 c0 -5 5 -10 11 -10 5 0 7 5 4 10 -3 6 -8 10 -11 10 -2 0
-4 -4 -4 -10z"/>
<path d="M2980 3367 c0 -26 4 -47 9 -47 9 0 6 79 -4 88 -3 3 -5 -16 -5 -41z"/>
<path d="M2608 3383 c7 -3 16 -2 19 1 4 3 -2 6 -13 5 -11 0 -14 -3 -6 -6z"/>
<path d="M3082 3360 c0 -14 2 -19 5 -12 2 6 2 18 0 25 -3 6 -5 1 -5 -13z"/>
<path d="M3041 3321 c-20 -6 -24 -13 -26 -51 -3 -59 -3 -60 -19 -60 -7 0 -19
-7 -26 -15 -9 -11 -9 -19 3 -35 12 -18 17 -19 24 -7 4 8 14 16 22 18 11 4 57
148 48 154 -1 1 -13 -1 -26 -4z"/>
<path d="M4928 3303 c7 -3 16 -2 19 1 4 3 -2 6 -13 5 -11 0 -14 -3 -6 -6z"/>
<path d="M2884 3289 c-3 -6 -1 -16 5 -22 8 -8 11 -5 11 11 0 24 -5 28 -16 11z"/>
<path d="M0 3204 c0 -14 4 -23 10 -19 13 8 13 45 0 45 -5 0 -10 -12 -10 -26z"/>
<path d="M2230 3220 l-25 -8 25 -1 c14 0 32 4 40 9 13 9 13 10 0 9 -8 -1 -26
-5 -40 -9z"/>
<path d="M3050 3220 c0 -5 5 -10 10 -10 6 0 10 5 10 10 0 6 -4 10 -10 10 -5 0
-10 -4 -10 -10z"/>
<path d="M2040 3210 c0 -5 5 -10 11 -10 5 0 7 5 4 10 -3 6 -8 10 -11 10 -2 0
-4 -4 -4 -10z"/>
<path d="M4672 3188 c3 -7 15 -15 27 -16 16 -3 22 1 19 10 -3 7 -15 15 -27 16
-16 3 -22 -1 -19 -10z"/>
<path d="M1816 3115 c4 -8 12 -15 20 -15 8 0 14 7 14 15 0 8 -9 15 -20 15 -13
0 -18 -5 -14 -15z"/>
<path d="M4900 3070 c0 -11 48 -25 56 -17 4 3 3 10 -1 16 -8 14 -55 14 -55 1z"/>
<path d="M6340 2981 c0 -5 6 -11 13 -14 8 -3 14 1 14 9 0 8 -6 14 -14 14 -7 0
-13 -4 -13 -9z"/>
<path d="M2526 2745 c4 -8 12 -15 20 -15 8 0 14 7 14 15 0 8 -9 15 -20 15 -13
0 -18 -5 -14 -15z"/>
<path d="M2731 2684 c0 -11 3 -14 6 -6 3 7 2 16 -1 19 -3 4 -6 -2 -5 -13z"/>
<path d="M2284 2679 c-4 -6 -21 -8 -43 -5 -29 5 -33 4 -17 -5 10 -6 40 -13 67
-15 43 -2 49 0 49 17 0 14 -7 19 -24 19 -14 0 -28 -5 -32 -11z"/>
<path d="M2650 2649 c0 -5 9 -9 20 -9 11 0 20 2 20 4 0 2 -9 6 -20 9 -11 3
-20 1 -20 -4z"/>
<path d="M2340 2631 c0 -16 38 -23 60 -11 29 16 25 20 -20 20 -22 0 -40 -4
-40 -9z"/>
<path d="M2260 2595 c0 -8 7 -15 15 -15 8 0 15 7 15 15 0 8 -7 15 -15 15 -8 0
-15 -7 -15 -15z"/>
<path d="M2416 2555 c4 -9 11 -14 16 -13 15 5 11 23 -6 26 -11 2 -14 -2 -10
-13z"/>
<path d="M2145 2540 c-3 -5 1 -10 9 -10 9 0 16 -4 16 -10 0 -5 9 -10 20 -10
11 0 20 -7 20 -15 0 -8 -7 -15 -15 -15 -8 0 -15 -4 -15 -9 0 -5 16 -5 37 -1
20 5 40 7 44 4 12 -7 39 7 39 21 0 8 -19 14 -54 17 -32 3 -61 11 -71 21 -19
20 -22 20 -30 7z"/>
<path d="M2230 2530 c0 -5 12 -10 28 -10 21 0 24 2 12 10 -20 13 -40 13 -40 0z"/>
<path d="M3980 2495 c0 -9 9 -15 21 -15 18 0 19 2 9 15 -7 8 -16 15 -21 15 -5
0 -9 -7 -9 -15z"/>
<path d="M2630 2490 c0 -5 7 -10 15 -10 8 0 15 5 15 10 0 6 -7 10 -15 10 -8 0
-15 -4 -15 -10z"/>
<path d="M4080 2425 c-7 -9 -8 -15 -2 -15 5 0 12 7 16 15 3 8 4 15 2 15 -2 0
-9 -7 -16 -15z"/>
<path d="M2080 2410 c0 -11 7 -20 15 -20 17 0 18 2 9 24 -9 23 -24 20 -24 -4z"/>
<path d="M2125 2360 c-3 -5 3 -10 15 -10 12 0 18 5 15 10 -3 6 -10 10 -15 10
-5 0 -12 -4 -15 -10z"/>
<path d="M4012 2310 c-7 -11 -9 -20 -4 -20 4 0 13 9 20 20 7 11 9 20 4 20 -4
0 -13 -9 -20 -20z"/>
<path d="M2120 2290 c0 -5 4 -10 9 -10 6 0 13 5 16 10 3 6 -1 10 -9 10 -9 0
-16 -4 -16 -10z"/>
<path d="M4028 2229 c-30 -22 -38 -59 -13 -59 8 0 15 -8 15 -18 0 -10 3 -21 6
-24 6 -7 108 37 139 60 19 13 18 14 -10 7 -16 -4 -44 -8 -62 -9 -28 -1 -31 0
-19 14 26 30 30 44 13 37 -9 -3 -19 -2 -22 3 -9 14 -16 12 -47 -11z"/>
<path d="M2530 2000 c0 -5 4 -10 9 -10 6 0 13 5 16 10 3 6 -1 10 -9 10 -9 0
-16 -4 -16 -10z"/>
<path d="M2648 1963 c7 -3 16 -2 19 1 4 3 -2 6 -13 5 -11 0 -14 -3 -6 -6z"/>
<path d="M2850 1880 c0 -5 7 -10 16 -10 8 0 12 5 9 10 -3 6 -10 10 -16 10 -5
0 -9 -4 -9 -10z"/>
<path d="M4106 1875 c-4 -12 -2 -13 13 -6 10 6 21 7 25 4 3 -3 6 -1 6 5 0 18
-37 15 -44 -3z"/>
<path d="M4885 780 c-3 -5 -1 -10 4 -10 6 0 11 5 11 10 0 6 -2 10 -4 10 -3 0
-8 -4 -11 -10z"/>
<path d="M4971 654 c0 -11 3 -14 6 -6 3 7 2 16 -1 19 -3 4 -6 -2 -5 -13z"/>
</g>
</svg>
